<svg width="14" height="14" viewBox="0 0 10 10" fill="none" xmlns="http://www.w3.org/2000/svg">
<path d="M0.734287 0.730381C0.343769 1.1209 0.34379 1.7541 0.734287 2.14459L3.56271 4.97302L0.734287 7.80145C0.343769 8.19197 0.34379 8.82516 0.734287 9.21566C1.12478 9.60616 1.75798 9.60618 2.1485 9.21566L4.97693 6.38724L7.80535 9.21566C8.19585 9.60616 8.82905 9.60618 9.21957 9.21566C9.61009 8.82514 9.61007 8.19195 9.21957 7.80145L6.39114 4.97302L9.21957 2.14459C9.61009 1.75408 9.61007 1.12088 9.21957 0.730381C8.82907 0.339884 8.19587 0.339862 7.80535 0.730381L4.97693 3.55881L2.1485 0.730381C1.758 0.339884 1.12481 0.339862 0.734287 0.730381Z" fill="#FF5050"/>
</svg>
